<svg width="20" height="21" viewBox="0 0 20 21" fill="none" xmlns="http://www.w3.org/2000/svg">
<g id="IdentificationBadge">
<path id="Vector" d="M15.625 3.43744H4.375C4.20924 3.43744 4.05027 3.50329 3.93306 3.6205C3.81585 3.73771 3.75 3.89668 3.75 4.06244V17.8124C3.75 17.9782 3.81585 18.1372 3.93306 18.2544C4.05027 18.3716 4.20924 18.4374 4.375 18.4374H15.625C15.7908 18.4374 15.9497 18.3716 16.0669 18.2544C16.1842 18.1372 16.25 17.9782 16.25 17.8124V4.06244C16.25 3.89668 16.1842 3.73771 16.0669 3.6205C15.9497 3.50329 15.7908 3.43744 15.625 3.43744ZM10 14.0624C9.50555 14.0624 9.0222 13.9158 8.61107 13.6411C8.19995 13.3664 7.87952 12.976 7.6903 12.5191C7.50108 12.0623 7.45157 11.5597 7.54804 11.0747C7.6445 10.5898 7.8826 10.1443 8.23223 9.79467C8.58186 9.44504 9.02732 9.20694 9.51227 9.11048C9.99723 9.01401 10.4999 9.06352 10.9567 9.25274C11.4135 9.44196 11.804 9.76239 12.0787 10.1735C12.3534 10.5846 12.5 11.068 12.5 11.5624C12.5 12.2255 12.2366 12.8614 11.7678 13.3302C11.2989 13.799 10.663 14.0624 10 14.0624Z" fill="#1C1C1C" fill-opacity="0.1"/>
<path id="Vector_2" d="M5.87422 16.4374C5.9399 16.4868 6.01468 16.5227 6.09426 16.5432C6.17385 16.5636 6.25669 16.5682 6.33803 16.5565C6.41937 16.5449 6.49763 16.5174 6.56832 16.4755C6.63901 16.4336 6.70075 16.3782 6.75 16.3124C7.12841 15.8079 7.61909 15.3984 8.1832 15.1163C8.7473 14.8343 9.36932 14.6874 10 14.6874C10.6307 14.6874 11.2527 14.8343 11.8168 15.1163C12.3809 15.3984 12.8716 15.8079 13.25 16.3124C13.2992 16.3781 13.3609 16.4334 13.4316 16.4752C13.5022 16.5171 13.5804 16.5446 13.6616 16.5562C13.7429 16.5678 13.8256 16.5633 13.9051 16.5429C13.9846 16.5225 14.0593 16.4867 14.125 16.4374C14.1907 16.3882 14.246 16.3265 14.2878 16.2559C14.3296 16.1852 14.3571 16.1071 14.3687 16.0258C14.3803 15.9446 14.3758 15.8618 14.3554 15.7823C14.3351 15.7028 14.2992 15.6281 14.25 15.5624C13.6966 14.8205 12.9586 14.2363 12.1094 13.8679C12.5748 13.443 12.9008 12.8874 13.0447 12.2738C13.1887 11.6603 13.1438 11.0176 12.9159 10.4301C12.688 9.84258 12.2879 9.33767 11.7679 8.98164C11.248 8.6256 10.6325 8.43509 10.0023 8.43509C9.37218 8.43509 8.75673 8.6256 8.23678 8.98164C7.71682 9.33767 7.31666 9.84258 7.08879 10.4301C6.86093 11.0176 6.81602 11.6603 6.95995 12.2738C7.10388 12.8874 7.42993 13.443 7.89531 13.8679C7.0444 14.2356 6.30472 14.8198 5.75 15.5624C5.65046 15.695 5.60763 15.8616 5.63092 16.0257C5.65422 16.1897 5.74173 16.3379 5.87422 16.4374ZM10 9.68744C10.3708 9.68744 10.7334 9.79741 11.0417 10.0034C11.35 10.2095 11.5904 10.5023 11.7323 10.8449C11.8742 11.1875 11.9113 11.5645 11.839 11.9282C11.7666 12.2919 11.588 12.626 11.3258 12.8883C11.0636 13.1505 10.7295 13.3291 10.3658 13.4014C10.0021 13.4738 9.62508 13.4366 9.28247 13.2947C8.93986 13.1528 8.64702 12.9125 8.44099 12.6041C8.23497 12.2958 8.125 11.9333 8.125 11.5624C8.125 11.0652 8.32254 10.5882 8.67417 10.2366C9.02581 9.88498 9.50272 9.68744 10 9.68744ZM15.625 2.81244H4.375C4.04348 2.81244 3.72554 2.94413 3.49112 3.17856C3.2567 3.41298 3.125 3.73092 3.125 4.06244V17.8124C3.125 18.144 3.2567 18.4619 3.49112 18.6963C3.72554 18.9307 4.04348 19.0624 4.375 19.0624H15.625C15.9565 19.0624 16.2745 18.9307 16.5089 18.6963C16.7433 18.4619 16.875 18.144 16.875 17.8124V4.06244C16.875 3.73092 16.7433 3.41298 16.5089 3.17856C16.2745 2.94413 15.9565 2.81244 15.625 2.81244ZM15.625 17.8124H4.375V4.06244H15.625V17.8124ZM6.875 5.93744C6.875 5.77168 6.94085 5.61271 7.05806 5.4955C7.17527 5.37829 7.33424 5.31244 7.5 5.31244H12.5C12.6658 5.31244 12.8247 5.37829 12.9419 5.4955C13.0592 5.61271 13.125 5.77168 13.125 5.93744C13.125 6.1032 13.0592 6.26217 12.9419 6.37938C12.8247 6.49659 12.6658 6.56244 12.5 6.56244H7.5C7.33424 6.56244 7.17527 6.49659 7.05806 6.37938C6.94085 6.26217 6.875 6.1032 6.875 5.93744Z" fill="#1C1C1C"/>
</g>
</svg>