<svg width="20" height="21" viewBox="0 0 20 21" fill="none" xmlns="http://www.w3.org/2000/svg">
<g id="ChartPieSlice">
<path id="Vector" d="M7.50002 3.86713V9.49213L2.62502 12.3046C2.29959 10.5481 2.61183 8.73309 3.50554 7.18629C4.39925 5.63949 5.81572 4.46248 7.50002 3.86713Z" fill="#1C1C1C" fill-opacity="0.1"/>
<path id="Vector_2" d="M7.81249 10.0335C7.90753 9.97867 7.98644 9.89974 8.04129 9.80471C8.09615 9.70967 8.12502 9.60186 8.12499 9.49213V3.86713C8.12443 3.76748 8.10006 3.66941 8.0539 3.5811C8.00774 3.49279 7.94113 3.4168 7.85964 3.35946C7.77814 3.30212 7.68412 3.2651 7.5854 3.25149C7.48669 3.23787 7.38616 3.24806 7.29218 3.28119C5.46794 3.92683 3.93383 5.202 2.96563 6.87749C1.99743 8.55298 1.65863 10.5189 2.01015 12.4218C2.02837 12.5202 2.06995 12.6128 2.1314 12.6918C2.19285 12.7708 2.27237 12.8339 2.36327 12.8757C2.44519 12.914 2.53456 12.9338 2.62499 12.9335C2.73469 12.9336 2.84247 12.9047 2.93749 12.8499L7.81249 10.0335ZM6.87499 4.814V9.13119L3.13437 11.2898C3.12499 11.1718 3.12499 11.0531 3.12499 10.9374C3.1261 9.67053 3.47678 8.4285 4.13843 7.3481C4.80007 6.26769 5.74701 5.39081 6.87499 4.814ZM17.0578 6.91556C17.0508 6.9015 17.0437 6.88666 17.0351 6.8726C17.0266 6.85853 17.0195 6.84681 17.0109 6.83431C16.2946 5.61072 15.2706 4.59578 14.0408 3.89026C12.8109 3.18473 11.4179 2.81316 9.99999 2.81244C9.83423 2.81244 9.67526 2.87829 9.55805 2.9955C9.44084 3.11271 9.37499 3.27168 9.37499 3.43744V10.6117L3.21796 14.1976C3.14651 14.239 3.08398 14.2942 3.03398 14.3599C2.98398 14.4256 2.9475 14.5006 2.92665 14.5805C2.9058 14.6604 2.901 14.7437 2.91251 14.8255C2.92403 14.9072 2.95164 14.9859 2.99374 15.057C3.89708 16.5952 5.28156 17.7935 6.93353 18.4667C8.58549 19.14 10.4131 19.2509 12.1344 18.7822C13.8556 18.3136 15.3748 17.2916 16.4575 15.8738C17.5401 14.456 18.1261 12.7213 18.125 10.9374C18.1268 9.5266 17.7588 8.13991 17.0578 6.91556ZM10.625 4.09056C11.6162 4.1818 12.5759 4.48709 13.4376 4.98535C14.2994 5.48361 15.0428 6.16296 15.6164 6.9765L10.625 9.88353V4.09056ZM9.99999 17.8124C8.90891 17.8096 7.834 17.5485 6.86323 17.0504C5.89247 16.5524 5.05345 15.8315 4.41484 14.9468L10.3055 11.5163L10.3226 11.5054L16.2422 8.05775C16.7253 9.10521 16.9372 10.2574 16.8582 11.4082C16.7792 12.559 16.4119 13.6715 15.7902 14.6431C15.1684 15.6147 14.3122 16.4143 13.3003 16.9681C12.2885 17.522 11.1535 17.8123 9.99999 17.8124Z" fill="#1C1C1C"/>
</g>
</svg>
